<svg width="80" height="80" viewBox="0 0 80 80" fill="none" xmlns="http://www.w3.org/2000/svg">
<path d="M40 8.85936C42.1856 8.85554 44.3655 9.08422 46.5028 9.54153L56.6999 0.124031L56.5493 13.6257C60.3883 16.0462 63.6559 19.2715 66.1262 23.0786L80 23.6102L70.3433 33.0454C71.35 37.4712 71.3833 42.0629 70.4408 46.5028L79.876 56.6999L66.3654 56.5493C63.9457 60.386 60.7239 63.6532 56.9214 66.1262L56.3898 80L46.9546 70.3433C42.5253 71.3454 37.9317 71.3787 33.4884 70.4408L23.3001 79.876L23.4596 66.3654C19.6183 63.9485 16.3476 60.7262 13.8738 56.9214L0 56.3898L9.6567 46.9546C8.65456 42.5253 8.62132 37.9317 9.55925 33.4884L0.124031 23.3001L13.6257 23.4596C16.0434 19.6159 19.2691 16.3449 23.0786 13.8738L23.6102 0L33.0454 9.6567C35.3255 9.12592 37.6589 8.85839 40 8.85936Z" fill="#FF7B00"/>
<path d="M34.3125 19.7209C34.4277 18.454 33.7898 18.9413 32.771 20.3145L31.8408 21.6877C31.5218 22.1572 31.7167 22.7951 31.2649 22.5736C30.8131 22.3521 30.627 23.1229 30.2992 23.2203C30.1178 23.1987 29.9339 23.2177 29.7608 23.2759C29.5876 23.3341 29.4296 23.4301 29.2981 23.557C29.0058 23.8582 28.8817 23.7253 30.1841 24.3012L30.8662 24.5935C32.328 25.2403 31.8585 23.3887 31.8673 23.371C32.1856 22.5614 32.658 21.8212 33.2583 21.1916C33.8075 20.8638 34.1974 21.2447 34.1442 20.6246C34.0556 19.8361 34.2594 20.2347 34.3125 19.7209Z" stroke="#0F3E73" stroke-width="0.292798" stroke-miterlimit="10"/>
<path d="M29.9269 21.0941C30.1218 21.5548 30.4408 21.3068 29.5017 21.9801L29.2271 22.2281C29.5814 23.1761 30.2459 22.6711 30.7243 22.1484C31.0432 21.8029 31.2824 21.9535 31.3799 21.7852C32.5759 19.5703 29.8915 21.0144 29.9269 21.0941Z" stroke="#0F3E73" stroke-width="0.292798" stroke-miterlimit="10"/>
<path d="M58.3836 16.4075C57.8609 16.4075 57.5951 16.7175 59.0746 18.135C60.8465 19.9069 55.2297 15.4772 57.5154 19.9689C58.5608 22.042 56.4877 21.413 56.4168 17.9844C56.4168 17.1605 55.5309 17.0365 55.274 17.5415C54.2108 19.5437 56.47 19.9246 56.3725 20.2879C56.1953 21.0055 52.749 18.6046 53.1566 19.4019C54.1045 21.1738 48.3637 20.0132 48.5143 21.1118C48.5674 21.5282 45.3958 22.5381 45.3781 22.3964C44.7845 17.6478 45.7767 22.2281 47.3714 21.0143C48.0093 20.5271 46.7247 16.5138 41.4091 18.3565L36.3061 20.1284C35.615 20.3765 35.1809 20.2879 34.9329 21.0143C34.2241 22.9811 36.3061 21.5459 35.8188 22.5116C34.6317 24.7264 35.3227 24.186 35.7391 24.7884C36.058 25.2402 37.0857 23.7253 37.8122 23.6987C39.584 23.619 38.0779 22.3964 38.8398 21.9268C39.6018 21.4573 40.8775 21.3156 41.4002 20.7486C41.604 20.5271 41.4622 20.1993 42.1178 20.1373C42.7734 20.0752 43.4201 20.0487 43.2164 20.4651C43.0126 20.8814 39.46 21.4662 39.6726 22.6445C39.8498 23.4684 38.7867 22.8039 41.2496 23.4329C41.4799 23.4861 41.8963 23.2026 41.9229 23.6721C42.1355 27.2159 40.6472 24.31 40.3105 24.2037C39.5397 23.9645 40.0004 23.9822 39.6195 24.6998C38.9284 26.0199 39.6195 24.3455 38.4855 24.8239C36.6339 25.5858 36.7136 26.073 35.3847 26.0907C34.7468 26.0907 33.6128 25.7807 33.6748 25.1428C33.7457 24.7175 35.4467 22.7951 34.8266 22.9014C33.2496 23.1494 33.4091 24.8239 32.7092 24.6112C32.1347 24.5431 31.5523 24.6098 31.0082 24.8061C30.5872 25.0742 30.1104 25.2423 29.6144 25.2976C29.1184 25.3529 28.6163 25.2939 28.1466 25.1251C27.9871 25.0808 27.5442 24.4783 27.3138 25.3111C27.0236 26.0004 26.6058 26.6286 26.0824 27.1627C26.0204 27.3133 25.8343 29.3244 25.3205 28.722C23.9738 27.1539 24.9307 25.1782 21.9539 28.9878C21.068 30.0686 21.5109 28.8371 20.9971 30.8837C20.7313 31.9379 20.5984 31.7696 22.0868 32.372C23.2562 32.7973 22.4855 33.0365 23.6372 31.6987C24.1156 31.1406 26.1267 30.8128 26.295 30.423C26.4633 30.0332 25.9229 29.3687 26.7202 30.0863C27.5176 30.8039 26.8886 31.114 27.7391 30.8571C29.1388 30.4407 29.3426 29.3599 28.8908 32.2569C28.6073 34.0287 30.512 37.0764 28.6339 36.5979C28.182 36.4828 28.2086 36.7929 28.3149 36.9435C29.5995 38.8394 30.9727 34.578 30.0868 34.0376C29.8485 33.1725 29.741 32.2767 29.7679 31.3798C31.9384 29.2181 30.2108 31.4418 31.2828 33.6744C31.7169 34.5603 32.1687 34.8792 31.4777 35.6677C31.3005 35.8715 30.8753 35.7917 31.1942 36.4119C31.7435 37.5193 29.9805 36.3056 32.6737 38.8305C33.7014 39.7873 32.2662 37.6168 32.4611 37.1472C32.9129 36.0044 33.347 36.4562 33.285 36.8903C32.9927 38.0686 32.9927 36.8903 34.924 37.1295L35.6682 37.2181C35.996 37.2181 35.4999 36.3322 35.7391 35.9512C35.9783 35.5703 36.2795 36.0398 36.4212 35.4817C36.6516 34.5957 37.3781 34.5957 37.9893 34.1528C38.202 33.9844 38.202 33.3997 38.6272 33.7718C38.8576 33.9756 40.0181 34.0376 39.5132 34.3299C37.8742 35.2159 39.8764 34.4628 39.2031 35.5791C38.955 35.9955 41.7457 35.4374 40.594 35.2602C40.4257 35.2602 40.3902 35.3311 40.3105 35.0033C40.1865 34.4983 39.1942 34.4274 40.3105 34.4185C41.4268 34.4097 43.3493 33.8781 42.4633 34.4185C39.2651 36.2613 43.0923 37.0764 42.9594 38.2192C42.8088 39.5747 40.6737 39.0165 39.8764 38.6267C39.079 38.2369 38.6892 37.4219 37.7501 37.5902C37.1506 37.5702 36.5557 37.478 35.9783 37.3156C36.3415 38.485 34.9417 37.3156 34.4988 37.5105C34.0558 37.7054 34.924 37.8648 34.5431 38.2192C34.2518 38.6717 34.0643 39.183 33.9938 39.7164C34.7025 40.5315 35.3227 42.2414 35.6239 40.6821C35.9606 38.9102 36.7933 43.269 37.4844 41.8072C37.6616 41.4263 37.8299 40.8593 38.6981 41.0808C40.0181 41.4086 38.2994 42.0642 38.3349 42.9147C38.3349 43.3399 37.5552 45.351 36.8288 45.3864C35.7734 45.4393 34.7177 45.2889 33.7191 44.9435C32.7269 44.4208 31.2474 43.9601 30.512 42.7906C29.8919 41.7984 29.2895 41.506 28.8199 42.4894C28.6604 42.8172 29.1388 43.4551 28.2884 43.1184C27.4379 42.7818 26.4722 40.3012 26.3659 40.1948C25.6748 39.5038 25.7723 40.1948 25.4268 39.2203C24.5408 36.7397 26.2153 38.4761 26.1089 36.7131C26.1089 36.0841 26.6051 35.8272 25.666 35.6411C24.8686 35.4817 23.965 34.1439 22.6892 33.9313C20.7402 33.6035 20.5984 30.3875 18.1975 34.1793C17.8432 34.7375 17.0635 34.3211 16.4257 34.8704C15.7878 35.4197 14.6538 35.2247 14.2728 37.0852C13.8919 38.9457 13.8653 40.062 13.1831 41.4174C12.4119 43.3996 12.3276 45.5833 12.9439 47.619C13.6261 49.8072 12.6339 50.9855 13.9008 51.65C15.1676 52.3144 15.1322 53.4219 16.0624 53.6256C16.9927 53.8294 17.728 53.4484 18.0647 55.0608C18.4013 56.6733 17.4622 55.8936 19.1986 57.8072C20.7933 59.5791 18.862 58.4451 19.9606 62.3698C24.8444 66.8435 31.0782 69.5645 37.6793 70.104C38.362 69.6128 39.141 69.2717 39.965 69.1029C41.8131 68.5779 43.4319 67.4488 44.563 65.8958C46.955 62.1838 47.903 62.6356 44.2972 62.4584C43.1366 62.4053 40.975 62.7419 40.5231 61.1206C39.6372 57.9844 38.2463 58.9501 37.2806 55.5658C36.3947 53.9889 36.9085 53.9977 36.5187 52.1195C36.493 51.1742 36.3592 50.2349 36.12 49.32C35.9243 49.056 35.7856 48.7544 35.7125 48.434C35.6117 48.0597 35.4303 47.712 35.1809 47.4152C35.0303 47.1583 34.5785 46.7065 34.6051 46.6002C34.6317 46.4938 35.0215 45.1561 35.2872 45.6699C35.4977 46.2689 35.6171 46.896 35.6416 47.5304C35.6416 47.5304 35.9606 48.0885 36.0314 47.9645C36.1023 47.8405 36.2441 47.3886 36.3149 47.2558C36.7225 46.485 36.7047 46.8039 36.7136 47.3532C36.7136 47.3532 36.5718 47.7962 36.5453 47.9025C36.5187 48.0088 36.9617 48.4518 36.9617 48.4518C37.5198 49.4174 37.1831 50.7641 37.8476 51.6411C38.7955 52.8017 37.8476 54.3787 38.955 55.3532C39.7612 56.0531 39.2119 56.4961 39.6815 56.8682C41.5951 58.4008 39.5309 58.64 40.9484 60.6245C50.4988 60.7751 46.6184 59.7386 48.3105 58.7818C49.666 58.7198 51.5796 58.2591 51.8542 56.5226C53.006 47.6013 49.9849 57.4883 45.6527 50.0199C44.7668 48.4961 44.9439 48.3986 45.9539 48.248C46.6981 48.1417 46.8398 48.5935 47.1322 49.2845C48.8332 52.9966 57.037 51.5437 57.9672 52.341C60.2441 54.3255 61.13 54.8128 61.5375 54.928C61.7679 54.99 62.6981 58.3299 62.9373 58.9147C63.0436 59.1716 63.3183 59.3045 63.4866 59.0919C68.4861 52.9151 70.8279 45.0057 69.9973 37.1027C69.1666 29.1998 65.2314 21.9502 59.0569 16.9479L58.3836 16.4075Z" stroke="#0F3E73" stroke-width="0.292798" stroke-miterlimit="10"/>
<path d="M30.2017 15.0609C30.3169 15.0609 30.4144 15.1672 30.4675 15.5393L30.6181 15.9203H30.5118C30.432 15.951 30.3436 15.951 30.2638 15.9203L30.3701 15.9823C30.6681 16.1844 30.9264 16.4397 31.132 16.7353V16.8328C31.0721 17.0391 30.944 17.2189 30.7685 17.3429C30.5931 17.4668 30.3807 17.5275 30.1663 17.515C29.8551 17.5358 29.5452 17.4583 29.2804 17.2935C29.1554 17.2158 29.0598 17.0988 29.0085 16.9609C28.9572 16.823 28.9531 16.672 28.9969 16.5316C29.0855 16.3189 29.3424 16.124 29.8828 16.0089C29.8828 15.7962 30.0777 15.1672 30.2638 15.1229M30.3346 15.6368C30.3561 15.5315 30.3561 15.4231 30.3346 15.3178C30.2273 15.5585 30.1499 15.8114 30.1043 16.0709V16.1595H30.0423C29.5727 16.2481 29.3335 16.4075 29.2627 16.5759C29.1918 16.7442 29.2627 16.948 29.493 17.1074C29.7215 17.2933 30.0048 17.3991 30.2992 17.4086C30.4641 17.4036 30.6228 17.3444 30.7508 17.2404C30.8789 17.1364 30.9692 16.9932 31.0079 16.8328C30.8235 16.576 30.592 16.3565 30.3258 16.1861C30.2283 16.1152 30.1575 16.0709 30.1397 16.0089C30.122 15.9468 30.1929 15.8405 30.4232 15.7697L30.3435 15.5748L30.3346 15.6368Z" fill="#0F3E73"/>
<path d="M30.3257 15.2027C30.3175 15.1775 30.3003 15.1564 30.2773 15.1433C30.2544 15.1302 30.2274 15.1261 30.2017 15.1318C30.1308 15.1318 30.051 15.2912 29.989 15.4684C29.927 15.6456 29.8827 15.8051 29.8473 15.9734C29.6538 16.0092 29.468 16.0782 29.298 16.1772C29.1739 16.2449 29.0745 16.3504 29.0145 16.4784C28.97 16.5923 28.97 16.7188 29.0145 16.8328C29.0772 16.9732 29.1711 17.0974 29.2891 17.196C29.54 17.4027 29.8505 17.5238 30.1751 17.5415C30.3822 17.5431 30.5852 17.4846 30.7598 17.3732C30.929 17.2472 31.0533 17.0702 31.1142 16.8682C30.9116 16.5755 30.6562 16.3231 30.3611 16.124L30.2814 16.0797V16.0266C30.3451 16.0443 30.4125 16.0443 30.4763 16.0266H30.5472C30.5068 15.9058 30.4595 15.7875 30.4054 15.6722C30.3961 15.5393 30.36 15.4097 30.2991 15.2912M30.1928 15.0609C30.2332 15.0574 30.2737 15.0666 30.3087 15.0873C30.3436 15.1079 30.3712 15.139 30.3877 15.1761C30.4486 15.2977 30.4847 15.4302 30.494 15.5659L30.6623 15.9823H30.5206C30.4708 15.991 30.4198 15.991 30.37 15.9823C30.673 16.185 30.9345 16.4436 31.1408 16.7442V16.8328C31.0789 17.0469 30.9461 17.2336 30.7642 17.3624C30.5824 17.4911 30.3621 17.5543 30.1396 17.5415C29.9667 17.5409 29.7954 17.5079 29.6347 17.4441C29.4733 17.3847 29.3234 17.2977 29.1917 17.1871C29.0565 17.0883 28.952 16.9531 28.8905 16.7973C28.8373 16.6667 28.8373 16.5204 28.8905 16.3898C28.9597 16.2527 29.0675 16.1387 29.2005 16.062C29.3683 15.9565 29.5548 15.8843 29.7498 15.8494C29.7775 15.6819 29.8251 15.5183 29.8916 15.3621C29.9536 15.2115 30.1219 15.0609 30.1928 15.0609ZM30.1662 16.186V16.3012H30.0865C29.9085 16.3344 29.7358 16.391 29.5726 16.4695C29.4692 16.5172 29.3849 16.5983 29.3334 16.6999C29.2885 16.7336 29.2546 16.7798 29.236 16.8328C29.29 16.9311 29.3621 17.0183 29.4486 17.0897C29.5566 17.1855 29.6833 17.2579 29.8207 17.3023C29.9501 17.355 30.0885 17.3821 30.2282 17.3821C30.3873 17.3937 30.5459 17.3533 30.6801 17.2669C30.8023 17.1761 30.8973 17.0535 30.9547 16.9125C30.8479 16.7646 30.7262 16.628 30.5915 16.505L30.2902 16.2835L30.1219 16.1506C30.0881 16.1269 30.0632 16.0926 30.051 16.0531L30.1662 16.186ZM30.3611 15.4684C30.3604 15.5647 30.3753 15.6605 30.4054 15.7519L30.494 15.9823C30.3772 15.9301 30.2465 15.9176 30.1219 15.9468C30.1095 15.96 30.1025 15.9774 30.1025 15.9956C30.1025 16.0137 30.1095 16.0311 30.1219 16.0443L30.1751 16.1152L30.2902 16.2038L30.6003 16.4341C30.7511 16.5508 30.8878 16.6846 31.0079 16.8328C30.9413 16.9906 30.8344 17.1281 30.6978 17.2314C30.5505 17.3194 30.382 17.3654 30.2105 17.3643C30.0616 17.3615 29.9145 17.3315 29.7764 17.2757C29.6347 17.2248 29.5029 17.1499 29.3866 17.0543C29.291 16.9768 29.2125 16.8802 29.1563 16.7708C29.1207 16.6796 29.1207 16.5784 29.1563 16.4873C29.2124 16.3682 29.31 16.2737 29.4309 16.2215C29.5951 16.1363 29.7714 16.0765 29.9536 16.0443V15.9468C29.9752 15.8028 30.0078 15.6607 30.051 15.5216C30.0953 15.3533 30.1574 15.1672 30.2017 15.1584C30.246 15.1495 30.2017 15.2381 30.2017 15.2912L30.3611 15.4684ZM30.3611 15.7608V15.5216C30.3253 15.601 30.2986 15.6842 30.2814 15.7696C30.2327 15.8326 30.1794 15.8918 30.1219 15.9468C30.1864 15.9019 30.2584 15.8689 30.3345 15.8494C30.3085 15.7778 30.2907 15.7035 30.2814 15.6279L30.3611 15.7608Z" fill="#0F3E73"/>
<path d="M34.6757 10.6312C36.3767 10.4806 37.9094 10.3389 39.2737 9.12513L39.4863 9.05425C39.9913 8.87707 40.2217 8.79733 41.081 9.35547C41.3385 9.5231 41.5763 9.71924 41.7898 9.94019C41.9852 10.1375 42.1205 10.3864 42.1796 10.6578C42.2235 10.9268 42.1633 11.2024 42.0113 11.4286C41.9168 11.5595 41.81 11.6812 41.6923 11.7918C41.1785 12.2613 41.2848 12.5183 41.4177 12.6777L41.5151 12.7663C41.5771 12.8195 41.6303 12.8638 41.6303 12.9347C41.6303 13.0055 41.524 13.0853 41.2051 13.103C39.8088 13.2426 38.4236 13.4765 37.0589 13.8029C36.4138 13.9077 35.7629 13.9728 35.1098 13.9978C34.7031 14.0349 34.2931 14.005 33.8961 13.9092C33.7721 13.9092 33.6657 14.2104 33.5594 14.5205C33.4531 14.8306 33.3822 15.0786 33.2316 15.1229C33.081 15.1672 32.9038 14.9812 32.7089 14.3256C32.6381 14.1041 32.4697 14.1395 32.2482 14.1838C31.8141 14.2724 31.2383 14.3876 30.7244 13.2979C30.5827 13.0055 29.4575 13.3599 28.545 13.6523C27.8806 13.856 27.3313 14.0332 27.1984 13.8915C27.0655 13.7497 27.1984 13.5991 27.5882 13.2713C30.1929 11.0033 32.5406 10.7995 34.6757 10.6135M39.3889 9.27574C37.9802 10.516 36.421 10.6578 34.6934 10.8084C32.1332 10.8405 29.6679 11.7826 27.7388 13.4662C27.6054 13.5643 27.4835 13.6772 27.3756 13.8029C27.7666 13.7601 28.1489 13.6586 28.5096 13.5016C29.493 13.1916 30.7067 12.8106 30.9282 13.2536C31.3712 14.1395 31.8673 14.0686 32.2394 13.9978C32.6115 13.9269 32.8064 13.8826 32.9216 14.2813C32.9667 14.5192 33.0602 14.7453 33.1962 14.9457C33.2893 14.7982 33.3581 14.6367 33.4 14.4673C33.5329 14.0686 33.6746 13.5814 33.9847 13.732C34.3599 13.8131 34.7452 13.837 35.1275 13.8029C35.7713 13.7764 36.4131 13.7143 37.05 13.6168C38.4254 13.2803 39.8227 13.0405 41.2316 12.8992C41.4088 12.8992 41.4708 12.9701 41.4708 12.9435C41.4708 12.9169 41.4708 12.9435 41.4177 12.9435L41.3114 12.8461C41.1165 12.6334 40.9481 12.2702 41.5949 11.6855C41.7009 11.59 41.796 11.483 41.8784 11.3665C42.0029 11.1821 42.0536 10.9576 42.0201 10.7375C41.9675 10.5036 41.851 10.2889 41.6835 10.1174C41.4794 9.91066 41.2536 9.7265 41.0101 9.5681C40.2305 9.06311 40.0268 9.13399 39.5927 9.2846L39.3889 9.27574Z" fill="#0F3E73"/>
<path d="M37.1028 10.3123C36.3053 10.4979 35.493 10.6135 34.6754 10.6578C33.5461 10.7254 32.4268 10.9095 31.3354 11.2071C29.9681 11.6324 28.7061 12.3419 27.6322 13.289C27.4936 13.398 27.3713 13.5263 27.2689 13.67C27.2246 13.7586 27.2158 13.8206 27.2689 13.856C27.7164 13.8431 28.1589 13.7594 28.5801 13.6079C29.4661 13.3156 30.6444 12.9524 30.795 13.2713C31.2999 14.299 31.8669 14.1572 32.2833 14.1041C32.383 14.0869 32.4849 14.0869 32.5846 14.1041C32.6327 14.1136 32.6769 14.1373 32.7116 14.172C32.7463 14.2067 32.7699 14.2509 32.7795 14.299C32.8356 14.5307 32.9283 14.752 33.0541 14.9546C33.1338 15.0609 33.1958 15.0963 33.2667 15.0697C33.4187 14.9082 33.5256 14.7097 33.5768 14.4939C33.6195 14.3427 33.6728 14.1946 33.7363 14.0509C33.7894 13.9269 33.8692 13.8294 33.9489 13.8649C34.0992 13.9064 34.2538 13.9302 34.4096 13.9357C34.6573 13.9535 34.906 13.9535 35.1538 13.9357C35.4904 13.9357 35.8448 13.8914 36.1637 13.8649C36.4827 13.8383 36.9345 13.7763 37.1028 13.7408C38.4703 13.4115 39.8585 13.1747 41.2579 13.0321C41.3656 13.0304 41.4727 13.0155 41.5768 12.9878C41.63 12.9878 41.6477 12.9346 41.6477 12.8992C41.6566 12.8764 41.6566 12.8511 41.6477 12.8283L41.5679 12.7574V12.66C41.5205 12.617 41.4843 12.563 41.4627 12.5027C41.4411 12.4425 41.4346 12.3778 41.4439 12.3145C41.5037 12.0834 41.6414 11.88 41.8337 11.7386L42.0109 11.5614L42.1527 11.3842C42.2237 11.2687 42.2774 11.1433 42.3121 11.0122C42.3398 10.8867 42.3398 10.7567 42.3121 10.6312C42.2937 10.509 42.2516 10.3917 42.1881 10.2857C42.1186 10.1616 42.0354 10.0457 41.94 9.94017C41.8455 9.83378 41.7417 9.73595 41.63 9.64781L41.2313 9.35545C40.97 9.15357 40.6675 9.01144 40.3454 8.93906C40.1267 8.92831 39.9085 8.9677 39.7075 9.05423L39.5037 9.12511C38.8788 9.68315 38.128 10.0814 37.3154 10.2857M34.6576 10.6312C35.4726 10.584 36.2819 10.4654 37.0762 10.2768C37.8789 10.084 38.6196 9.69083 39.2291 9.13397L39.4328 9.07195C39.6444 8.97822 39.8751 8.93572 40.1061 8.94792C40.4491 9.02435 40.7722 9.17227 41.0541 9.38203L41.4528 9.67439C41.5696 9.76308 41.6765 9.86406 41.7717 9.97561C41.87 10.0861 41.9589 10.2047 42.0375 10.33C42.1001 10.4467 42.1449 10.5721 42.1704 10.7021C42.1881 10.8344 42.1881 10.9684 42.1704 11.1007C42.1366 11.242 42.0797 11.3767 42.0021 11.4994L41.8603 11.6855L41.6743 11.8715C41.4959 12.0019 41.3677 12.1896 41.311 12.4031C41.3028 12.456 41.3074 12.5102 41.3243 12.5611C41.3413 12.6119 41.3701 12.658 41.4085 12.6954V12.7397H41.4616L41.5414 12.8283C41.5504 12.8632 41.5504 12.8998 41.5414 12.9346C41.5408 12.9688 41.5293 13.0018 41.5086 13.0289C41.4879 13.056 41.459 13.0758 41.4262 13.0852C41.3117 13.103 41.1952 13.103 41.0807 13.0852C39.6873 13.2286 38.3051 13.4654 36.9434 13.794C36.775 13.794 36.4207 13.8737 36.0043 13.918C35.5879 13.9623 35.331 13.98 34.9854 13.9889C34.7377 14.0066 34.489 14.0066 34.2413 13.9889C34.0794 13.9796 33.919 13.9529 33.7628 13.9092C33.7186 13.9092 33.6743 13.9623 33.63 14.0598C33.5857 14.1572 33.5236 14.3433 33.4705 14.4939C33.373 14.7951 33.2844 15.0697 33.1161 15.1229C32.9478 15.1761 32.9301 15.1229 32.8326 14.9723C32.7076 14.762 32.6122 14.5354 32.5491 14.299C32.5402 14.2697 32.5243 14.2431 32.5026 14.2214C32.481 14.1998 32.4544 14.1838 32.4251 14.1749C32.3344 14.1573 32.2411 14.1573 32.1504 14.1749C31.7075 14.2635 31.1228 14.3787 30.5912 13.289C30.4672 13.0232 29.3509 13.3776 28.4561 13.6611C27.7916 13.8737 27.2246 14.0509 27.0829 13.8914C26.9411 13.732 27.0297 13.7497 27.0829 13.6345C27.1886 13.4725 27.3169 13.3263 27.4638 13.2004C28.5421 12.2371 29.8138 11.5152 31.1936 11.083C32.3349 10.8093 33.502 10.6578 34.6754 10.6312H34.6576ZM39.5746 10.1528C40.3955 9.94496 41.1548 9.54402 41.7894 8.98336L41.9755 8.92134C42.1623 8.84065 42.3662 8.80718 42.569 8.82389C42.8896 8.88664 43.1922 9.01978 43.455 9.2137L43.8359 9.48834C43.9447 9.57354 44.0455 9.66843 44.1372 9.77184C44.2264 9.86531 44.3038 9.96946 44.3675 10.0819C44.4203 10.1825 44.4591 10.2898 44.4827 10.4009C44.5093 10.5085 44.5093 10.621 44.4827 10.7287C44.4539 10.845 44.406 10.9558 44.3409 11.0564L44.2169 11.2159L44.0486 11.3842C43.8223 11.5535 43.6649 11.799 43.6056 12.0753C43.6009 12.1528 43.6136 12.2304 43.6428 12.3025C43.6719 12.3745 43.7167 12.4391 43.7739 12.4917L43.8271 12.5448L43.8714 12.598C43.8076 12.5802 43.7402 12.5802 43.6765 12.598C43.1062 12.6354 42.5384 12.7034 41.9755 12.8017C40.7706 13.0144 39.5657 13.289 39.5037 13.3067C39.3354 13.3067 38.9899 13.3865 38.6178 13.4308C38.2457 13.4751 37.9533 13.4928 37.6255 13.5016H36.9079C36.7584 13.4917 36.6101 13.468 36.465 13.4308C36.335 13.3776 36.2287 13.4308 36.146 13.5902C36.0502 13.7668 35.9759 13.9542 35.9245 14.1484C35.8802 14.2635 35.8448 14.3787 35.8094 14.4673C35.7739 14.5559 35.7385 14.6268 35.703 14.6356C35.703 14.6356 35.6233 14.6356 35.5702 14.485C35.4992 14.312 35.44 14.1344 35.393 13.9535C35.331 13.7674 35.2512 13.6877 35.1449 13.6611C35.0104 13.6346 34.8719 13.6346 34.7374 13.6611C34.5293 13.7231 34.3076 13.7231 34.0995 13.6611C33.937 13.5871 33.7907 13.4816 33.6691 13.3509C33.5475 13.2201 33.4529 13.0666 33.3908 12.8992C33.187 12.4828 31.991 12.8992 31.0164 13.1738C30.649 13.3364 30.2565 13.4352 29.8559 13.4662C29.8559 13.4662 29.8559 13.4042 29.9445 13.3333L30.228 13.0764C31.2871 12.1294 32.5382 11.4223 33.8957 11.0033C34.972 10.7053 36.0767 10.5212 37.1914 10.454C37.9943 10.4133 38.7919 10.3007 39.5746 10.1174V10.1528ZM41.8337 9.03652C41.2258 9.61734 40.4929 10.0511 39.6912 10.3045C38.8895 10.5579 38.0404 10.6242 37.2091 10.4983C36.3971 10.6898 35.5702 10.8114 34.7374 10.8615C33.6253 10.9212 32.5232 11.1024 31.4506 11.402C30.1016 11.8182 28.8593 12.5225 27.8094 13.4662L27.5259 13.7143H27.4638C27.8352 13.6421 28.1998 13.5384 28.5535 13.4042C29.5458 13.0852 30.7772 12.6954 31.0076 13.165C31.0647 13.324 31.1528 13.4702 31.2669 13.5949C31.381 13.7196 31.5187 13.8204 31.672 13.8914C31.8711 13.9534 32.0843 13.9534 32.2833 13.8914C32.4268 13.865 32.574 13.865 32.7174 13.8914C32.8415 13.8914 32.9478 14.0155 33.0098 14.2281C33.0595 14.4054 33.1187 14.5798 33.187 14.7508L33.2401 14.866C33.277 14.8301 33.3017 14.7837 33.311 14.7331C33.3351 14.6221 33.3739 14.5149 33.4262 14.4141C33.4809 14.2169 33.5582 14.0266 33.6565 13.8471C33.754 13.6877 33.878 13.5991 34.0552 13.6611C34.1907 13.6997 34.3307 13.7205 34.4716 13.7231C34.7075 13.7408 34.9444 13.7408 35.1803 13.7231L36.1815 13.6522C36.4809 13.6492 36.7786 13.6075 37.0674 13.5282C37.2003 13.5282 38.3431 13.227 39.548 13.0232C40.1132 12.9199 40.6842 12.8518 41.2579 12.8195H41.3553V12.7752C41.2949 12.7152 41.2479 12.6432 41.2174 12.5638C41.1868 12.4844 41.1735 12.3994 41.1781 12.3145C41.23 12.0187 41.3953 11.7548 41.6388 11.5792L41.7983 11.4197L41.9223 11.2514C41.985 11.1601 42.0301 11.058 42.0552 10.9501C42.0724 10.8505 42.0724 10.7486 42.0552 10.6489C42.0387 10.5456 42.0026 10.4464 41.9489 10.3566C41.8882 10.2471 41.8138 10.1459 41.7274 10.0553C41.6411 9.95264 41.5429 9.86046 41.4351 9.7807C41.3164 9.68212 41.1921 9.59043 41.063 9.50606C40.818 9.32288 40.5373 9.19311 40.239 9.12511C40.0448 9.10831 39.8495 9.14188 39.672 9.22256L41.8337 9.03652Z" fill="#0F3E73"/>
<path d="M50.6752 48.9745L50.436 49.3909H56.2389L56.487 48.9745H50.6752Z" fill="white"/>
<path d="M57.0455 27.845L56.8506 28.1905H74.5693L74.7731 27.845H57.0455Z" fill="white"/>
<path d="M51.083 48.2214L50.8438 48.6467H56.6466L56.8947 48.2214H51.083Z" fill="white"/>
<path d="M51.5615 47.4153L51.3135 47.8317H57.1164L57.3644 47.4153H51.5615Z" fill="white"/>
<path d="M52.0401 46.5913L51.792 47.0077H57.6037L57.8429 46.5913H52.0401Z" fill="white"/>
<path d="M52.5097 45.7852L52.2705 46.2015H58.0734L58.3126 45.7852H52.5097Z" fill="white"/>
<path d="M52.9789 44.979L52.7397 45.3954H58.5426L58.7907 44.979H52.9789Z" fill="white"/>
<path d="M53.457 44.155L53.2178 44.5714H59.0207L59.2687 44.155H53.457Z" fill="white"/>
<path d="M53.9444 43.3312L53.6963 43.7476H59.4992L59.7472 43.3312H53.9444Z" fill="white"/>
<path d="M54.4146 42.5249L54.1665 42.9413H59.9782L60.2174 42.5249H54.4146Z" fill="white"/>
<path d="M54.9014 41.6921L54.6533 42.1085H60.4651L60.7043 41.6921H54.9014Z" fill="white"/>
<path d="M55.371 40.8771L55.1318 41.3023H60.9347L61.1739 40.8771H55.371Z" fill="white"/>
<path d="M55.8487 40.0709L55.6006 40.4873H61.4035L61.6515 40.0709H55.8487Z" fill="white"/>
<path d="M56.3277 39.2469L56.0796 39.6633H61.8825L62.1305 39.2469H56.3277Z" fill="white"/>
<path d="M56.8057 38.4319L56.5576 38.8483H62.3605L62.6086 38.4319H56.8057Z" fill="white"/>
<path d="M57.2758 37.6168L57.0366 38.0421H62.8395L63.0787 37.6168H57.2758Z" fill="white"/>
<path d="M57.807 36.7131L57.5146 37.2004H63.3264L63.6099 36.7131H57.807Z" fill="white"/>
<path d="M58.2768 35.8981L58.0376 36.3145H63.8405L64.0885 35.8981H58.2768Z" fill="white"/>
<path d="M58.7554 35.0919L58.5073 35.5083H64.3102L64.5583 35.0919H58.7554Z" fill="white"/>
<path d="M59.2334 34.2679L58.9854 34.6843H64.7971L65.0363 34.2679H59.2334Z" fill="white"/>
<path d="M59.7124 33.4529L59.4644 33.8693H65.2672L65.5153 33.4529H59.7124Z" fill="white"/>
<path d="M73.8337 29.4219L73.4617 29.7852H55.8936L56.1416 29.3688H73.8692L73.8337 29.4219Z" fill="white"/>
<path d="M56.6206 28.5449L56.3813 28.9613H74.1001L74.3481 28.5449H56.6206Z" fill="white"/>
<path d="M70.5565 32.6379L70.1667 33.0189H65.7725L65.7459 33.0543H59.943L59.9607 33.0189H54.0161L54.2287 32.6379H70.5565Z" fill="white"/>
<path d="M71.4068 31.8051L70.9815 32.2214H54.4766L54.7158 31.8051H71.4068Z" fill="white"/>
<path d="M72.2309 30.9989L71.8056 31.4153H54.9463L55.1943 30.9989H72.2309Z" fill="white"/>
<path d="M73.054 30.1838L72.6288 30.6002H55.415L55.6631 30.1838H73.054Z" fill="white"/>
<path d="M37.6258 48.9745L37.5195 49.3909H43.7654L43.8451 48.9745H37.6258Z" fill="white"/>
<path d="M21.5374 48.9745L21.1299 49.3909H27.3669L27.7478 48.9745H21.5374Z" fill="white"/>
<path d="M37.7943 48.2214L37.688 48.6467H43.925L44.0136 48.2214H37.7943Z" fill="white"/>
<path d="M37.9891 47.4153L37.8916 47.8317H44.0932L44.1817 47.4153H37.9891Z" fill="white"/>
<path d="M38.1932 46.5913L38.0869 47.0077H44.2619L44.3416 46.5913H38.1932Z" fill="white"/>
<path d="M45.2623 42.1085L45.3509 41.6921H28.4295L28.022 42.1085H45.2623Z" fill="white"/>
<path d="M45.0939 42.9413L45.1825 42.5249H27.6233L27.2246 42.9413H45.0939Z" fill="white"/>
<path d="M44.9259 43.7476L45.0145 43.3312H26.844L26.4453 43.7476H44.9259Z" fill="white"/>
<path d="M44.7575 44.5714L44.8461 44.155H26.0554L25.6567 44.5714H44.7575Z" fill="white"/>
<path d="M38.3968 45.7852L38.2905 46.2015H44.4301L44.5098 45.7852H38.3968Z" fill="white"/>
<path d="M38.5916 44.979L38.4941 45.3954H44.5894L44.678 44.979H38.5916Z" fill="white"/>
<path d="M40.7262 36.7131L40.5933 37.2004H46.2721L46.3696 36.7131H40.7262Z" fill="white"/>
<path d="M48.1326 28.1905L48.2035 27.845H41.7804L41.4526 28.1905H48.1326Z" fill="white"/>
<path d="M47.9646 28.9613L48.0443 28.5449H41.0809L40.6733 28.9613H47.9646Z" fill="white"/>
<path d="M47.7962 29.7852L47.8848 29.3688H40.2923L39.8848 29.7852H47.7962Z" fill="white"/>
<path d="M47.6278 30.6002L47.7075 30.1838H39.5037L39.0962 30.6002H47.6278Z" fill="white"/>
<path d="M47.4593 31.4153L47.5479 30.9989H38.7239L38.3164 31.4153H47.4593Z" fill="white"/>
<path d="M47.2913 32.2214L47.3799 31.8051H37.9446L37.5371 32.2214H47.2913Z" fill="white"/>
<path d="M47.1234 33.0543L47.212 32.6379H37.1389L36.7402 33.0543H47.1234Z" fill="white"/>
<path d="M40.9388 35.8981L40.8325 36.3145H46.4582L46.5379 35.8981H40.9388Z" fill="white"/>
<path d="M41.1606 35.0919L41.0454 35.5083H46.6179L46.7065 35.0919H41.1606Z" fill="white"/>
<path d="M41.3729 34.2679L41.2666 34.6843H46.786L46.8746 34.2679H41.3729Z" fill="white"/>
<path d="M41.435 33.8693L41.5059 33.7807L41.4882 33.8693H46.9544L47.043 33.4529H36.3586L35.96 33.8693H41.435Z" fill="white"/>
<path d="M40.6913 34.6843L41.0633 34.2679H35.5705L35.1719 34.6843H40.6913Z" fill="white"/>
<path d="M39.9554 35.5083L40.3275 35.0919H34.7816L34.374 35.5083H39.9554Z" fill="white"/>
<path d="M39.2204 36.3145L39.6014 35.8981H34.0023L33.5947 36.3145H39.2204Z" fill="white"/>
<path d="M38.4235 37.2004L38.8664 36.7131H33.223L32.7446 37.2004H38.4235Z" fill="white"/>
<path d="M46.1041 38.0421L46.1838 37.6168H40.4784L40.3721 38.0421H46.1041Z" fill="white"/>
<path d="M37.6705 38.0421L38.0514 37.6168H32.346L31.9385 38.0421H37.6705Z" fill="white"/>
<path d="M45.936 38.8483L46.0246 38.4319H40.2661L40.1509 38.8483H45.936Z" fill="white"/>
<path d="M36.9433 38.8483L37.3242 38.4319H31.5657L31.167 38.8483H36.9433Z" fill="white"/>
<path d="M45.767 39.6633L45.8555 39.2469H40.0438L39.9375 39.6633H45.767Z" fill="white"/>
<path d="M29.2088 40.8771L28.8013 41.3023H45.4303L45.5189 40.8771H29.2088Z" fill="white"/>
<path d="M29.9891 40.0709L29.5815 40.4873H45.5993L45.6879 40.0709H29.9891Z" fill="white"/>
<path d="M36.2075 39.6633L36.5796 39.2469H30.7767L30.3691 39.6633H36.2075Z" fill="white"/>
<path d="M22.1399 48.2214L21.7412 48.6467H27.9693L28.3591 48.2214H22.1399Z" fill="white"/>
<path d="M22.9197 47.4153L22.5122 47.8317H28.7138L29.0947 47.4153H22.9197Z" fill="white"/>
<path d="M23.7078 46.5913L23.3091 47.0077H29.4663L29.8473 46.5913H23.7078Z" fill="white"/>
<path d="M24.487 45.7852L24.0884 46.2015H30.2102L30.5911 45.7852H24.487Z" fill="white"/>
<path d="M25.2668 44.979L24.8682 45.3954H30.9545L31.3355 44.979H25.2668Z" fill="white"/>
<path d="M9.00099 48.9745L8.75293 49.3909H14.5558L14.8039 48.9745H9.00099Z" fill="white"/>
<path d="M9.39936 48.2214L9.16016 48.6467H14.963L15.2022 48.2214H9.39936Z" fill="white"/>
<path d="M9.86909 47.4153L9.62988 47.8317H15.4328L15.6808 47.4153H9.86909Z" fill="white"/>
<path d="M10.3569 46.5913L10.1089 47.0077H15.9118L16.1598 46.5913H10.3569Z" fill="white"/>
<path d="M10.8257 45.7852L10.5776 46.2015H16.3894L16.6286 45.7852H10.8257Z" fill="white"/>
<path d="M11.2958 44.979L11.0566 45.3954H16.8595L17.0987 44.979H11.2958Z" fill="white"/>
<path d="M11.7739 44.155L11.5347 44.5714H17.3375L17.5767 44.155H11.7739Z" fill="white"/>
<path d="M12.2529 43.3312L12.0137 43.7476H17.8166L18.0646 43.3312H12.2529Z" fill="white"/>
<path d="M12.7305 42.5249L12.4824 42.9413H18.2853L18.5334 42.5249H12.7305Z" fill="white"/>
<path d="M13.2188 41.6921L12.9707 42.1085H18.7736L19.0216 41.6921H13.2188Z" fill="white"/>
<path d="M13.6879 40.8771L13.4487 41.3023H19.2516L19.4908 40.8771H13.6879Z" fill="white"/>
<path d="M14.1577 40.0709L13.9185 40.4873H19.7213L19.9694 40.0709H14.1577Z" fill="white"/>
<path d="M14.6357 39.2469L14.3965 39.6633H20.1994L20.4474 39.2469H14.6357Z" fill="white"/>
<path d="M15.1226 38.4319L14.8745 38.8483H20.6774L20.9255 38.4319H15.1226Z" fill="white"/>
<path d="M15.5923 37.6168L15.3442 38.0421H21.1471L21.3952 37.6168H15.5923Z" fill="white"/>
<path d="M16.1239 36.7131L15.8315 37.2004H21.6344L21.9268 36.7131H16.1239Z" fill="white"/>
<path d="M16.5932 35.8981L16.354 36.3145H22.1569L22.3961 35.8981H16.5932Z" fill="white"/>
<path d="M17.0629 35.0919L16.8237 35.5083H22.6266L22.8747 35.0919H17.0629Z" fill="white"/>
<path d="M17.541 34.2679L17.3018 34.6843H23.1046L23.3527 34.2679H17.541Z" fill="white"/>
<path d="M18.0288 33.4529L17.7808 33.8693H23.5836L23.8317 33.4529H18.0288Z" fill="white"/>
<path d="M12.5447 32.7177L12.3232 33.0897H18.2767L18.2502 33.134H24.0619L24.0796 33.0897H30.0508L30.2723 32.7177H12.5447Z" fill="white"/>
<path d="M13.0322 31.8937L12.793 32.3101H30.5117L30.7597 31.8937H13.0322Z" fill="white"/>
<path d="M13.5019 31.0698L13.2627 31.4862H30.9903L31.2295 31.0698H13.5019Z" fill="white"/>
<path d="M13.9805 30.2458L13.7324 30.6622H31.46L31.6992 30.2458H13.9805Z" fill="white"/>
<path d="M14.4585 29.4219L14.2104 29.8383H31.938L32.1772 29.4219H14.4585Z" fill="white"/>
<path d="M14.9365 28.598L14.6885 29.0144H32.416L32.6641 28.598H14.9365Z" fill="white"/>
<path d="M15.3624 27.845L15.1675 28.1905H32.8862L33.09 27.845H15.3624Z" fill="white"/>
<path d="M18.5863 45.3688L18.48 45.5637H12.6328L12.7391 45.3688H18.5863Z" fill="white"/>
<path d="M18.1888 46.0509L18.0204 46.3344H12.1821L12.3505 46.0509H18.1888Z" fill="white"/>
<path d="M17.7633 46.7952L17.5596 47.1318H11.7124L11.9162 46.7952H17.7633Z" fill="white"/>
<path d="M17.285 47.6014L17.0635 47.9823H11.2163L11.4467 47.5925L17.285 47.6014Z" fill="white"/>
<path d="M16.7888 48.4518L16.5053 48.9302H10.667L10.9416 48.4518H16.7888Z" fill="white"/>
<path d="M60.412 45.3688L60.2968 45.5637H54.4585L54.5648 45.3688H60.412Z" fill="white"/>
<path d="M60.0135 46.0509L59.8452 46.3344H54.0068L54.1752 46.0509H60.0135Z" fill="white"/>
<path d="M59.5792 46.7952L59.3843 47.1318H53.5371L53.7409 46.7952H59.5792Z" fill="white"/>
<path d="M59.1102 47.6014L58.8887 47.9823H53.0415L53.2718 47.5925L59.1102 47.6014Z" fill="white"/>
<path d="M58.6141 48.4518L58.3306 48.9302H52.4834L52.7669 48.4518H58.6141Z" fill="white"/>
<path d="M39.4326 48.9302L39.3174 49.3909H45.6252L45.7138 48.9302H39.4326Z" fill="#0A4181"/>
<path d="M39.663 47.9823L39.5479 48.4518H45.8203L45.9177 47.9823H39.663Z" fill="#0A4181"/>
<path d="M39.8759 47.1318L39.7607 47.6014H45.9889L46.0863 47.1318H39.8759Z" fill="#0A4181"/>
<path d="M40.0712 46.3345L39.9648 46.7952H46.1575L46.255 46.3345H40.0712Z" fill="#0A4181"/>
<path d="M40.2656 45.5637L40.1416 46.051H46.3077L46.4052 45.5637H40.2656Z" fill="#0A4181"/>
<path d="M10.6662 48.9302L10.3916 49.3909H16.2388L16.5046 48.9302H10.6662Z" fill="#0A4181"/>
<path d="M11.216 47.9823L10.9414 48.4518H16.7886L17.0632 47.9823H11.216Z" fill="#0A4181"/>
<path d="M11.7126 47.1318L11.438 47.6014H17.2852L17.5598 47.1318H11.7126Z" fill="#0A4181"/>
<path d="M12.1818 46.3345L11.916 46.7952H17.7632L18.0201 46.3345H12.1818Z" fill="#0A4181"/>
<path d="M12.6336 45.5637L12.3501 46.051H18.1884L18.4808 45.5637H12.6336Z" fill="#0A4181"/>
<path d="M16.9745 27.845L13.918 33.0897H19.9158L12.7397 45.3688H18.5869L25.7541 33.0897H31.7696L34.8261 27.845H16.9745Z" fill="#0A4181"/>
<path d="M52.4831 48.9302L52.2173 49.3909H58.0645L58.3302 48.9302H52.4831Z" fill="#0A4181"/>
<path d="M53.0408 47.9823L52.7661 48.4518H58.6133L58.8879 47.9823H53.0408Z" fill="#0A4181"/>
<path d="M53.5373 47.1318L53.2627 47.6014H59.1099L59.3845 47.1318H53.5373Z" fill="#0A4181"/>
<path d="M53.9976 46.3345L53.7407 46.7952H59.579L59.8448 46.3345H53.9976Z" fill="#0A4181"/>
<path d="M54.4583 45.5637L54.1748 46.051H60.0131L60.2966 45.5637H54.4583Z" fill="#0A4181"/>
<path d="M75.6945 27.8096L70.3346 33.0543L67.5793 33.0897L60.4121 45.3688H54.5649L61.7322 33.0897H55.7344L58.7997 27.845L75.6945 27.8096Z" fill="#0A4181"/>
<path d="M23.2916 48.9302L22.8486 49.3909H29.1565L29.5729 48.9302H23.2916Z" fill="#0A4181"/>
<path d="M24.2038 47.9823L23.752 48.4518H30.0155L30.4496 47.9823H24.2038Z" fill="#0A4181"/>
<path d="M25.0275 47.1318L24.5757 47.6014H30.8038L31.2291 47.1318H25.0275Z" fill="#0A4181"/>
<path d="M25.7896 46.3345L25.3555 46.7952H31.5393L31.9557 46.3345H25.7896Z" fill="#0A4181"/>
<path d="M26.5335 45.5637L26.064 46.051H32.2212L32.6642 45.5637H26.5335Z" fill="#0A4181"/>
<path d="M41.639 40.1683H37.6257L43.3046 33.8605L41.639 40.1683ZM40.4784 44.7841L40.3278 45.3688H46.4674L50.0643 27.845H43.5969L26.7642 45.3688H32.886L33.4264 44.7841H40.4784Z" fill="#0A4181"/>
<path d="M32.8416 45.3688L32.6644 45.5637H26.5337L26.7197 45.3688H32.8416Z" fill="white"/>
<path d="M32.2214 46.0509L31.9557 46.3344H25.7896L26.0642 46.0509H32.2214Z" fill="white"/>
<path d="M31.5395 46.7952L31.2294 47.1318H25.0278L25.3556 46.7952H31.5395Z" fill="white"/>
<path d="M30.8043 47.6013L30.4499 47.9823H24.2041L24.5762 47.6013H30.8043Z" fill="white"/>
<path d="M30.0158 48.4518L29.5728 48.9302H23.2915L23.7522 48.4518H30.0158Z" fill="white"/>
<path d="M46.4499 45.3688L46.4056 45.5637H40.2661L40.3104 45.3688H46.4499Z" fill="white"/>
<path d="M46.3078 46.0509L46.2458 46.3344H40.0708L40.1417 46.0509H46.3078Z" fill="white"/>
<path d="M46.1568 46.7952L46.0859 47.1318H39.8755L39.9641 46.7952H46.1568Z" fill="white"/>
<path d="M45.9887 47.6013L45.9178 47.9823H39.6631L39.7605 47.6013H45.9887Z" fill="white"/>
<path d="M45.8202 48.4518L45.7139 48.9302H39.4326L39.5478 48.4518H45.8202Z" fill="white"/>
</svg>
